<?xml version="1.0" encoding="utf-8"?>
<!-- Generator: Adobe Illustrator 30.6.0, SVG Export Plug-In . SVG Version: 9.03 Build 0)  -->
<svg version="1.1" xmlns="http://www.w3.org/2000/svg" xmlns:xlink="http://www.w3.org/1999/xlink" x="0px" y="0px"
	 viewBox="0 0 1255.748 1394.646" style="enable-background:new 0 0 1255.748 1394.646;" xml:space="preserve">
<g id="Arte">
</g>
<g id="Vinco">
	<g>
		
			<line style="fill:none;stroke:#00AEEF;stroke-width:2.016;stroke-linejoin:round;stroke-miterlimit:10;stroke-dasharray:7,2,2,2;" x1="817.796" y1="439.367" x2="817.796" y2="955.272"/>
		
			<line style="fill:none;stroke:#00AEEF;stroke-width:2.016;stroke-linejoin:round;stroke-miterlimit:10;stroke-dasharray:7,2,2,2;" x1="243.78" y1="955.275" x2="437.953" y2="955.275"/>
		
			<line style="fill:none;stroke:#00AEEF;stroke-width:2.016;stroke-linejoin:round;stroke-miterlimit:10;stroke-dasharray:7,2,2,2;" x1="817.796" y1="956.69" x2="437.953" y2="956.693"/>
		
			<line style="fill:none;stroke:#00AEEF;stroke-width:2.016;stroke-linejoin:round;stroke-miterlimit:10;stroke-dasharray:7,2,2,2;" x1="243.78" y1="439.37" x2="437.953" y2="439.37"/>
		
			<line style="fill:none;stroke:#00AEEF;stroke-width:2.016;stroke-linejoin:round;stroke-miterlimit:10;stroke-dasharray:7,2,2,2;" x1="242.363" y1="953.852" x2="242.363" y2="440.787"/>
		
			<line style="fill:none;stroke:#00AEEF;stroke-width:2.016;stroke-linejoin:round;stroke-miterlimit:10;stroke-dasharray:7,2,2,2;" x1="437.953" y1="439.37" x2="437.953" y2="955.275"/>
		
			<line style="fill:none;stroke:#00AEEF;stroke-width:2.016;stroke-linejoin:round;stroke-miterlimit:10;stroke-dasharray:7,2,2,2;" x1="439.371" y1="242.362" x2="816.379" y2="242.359"/>
		
			<line style="fill:none;stroke:#00AEEF;stroke-width:2.016;stroke-linejoin:round;stroke-miterlimit:10;stroke-dasharray:7,2,2,2;" x1="817.796" y1="437.95" x2="437.953" y2="437.952"/>
		
			<line style="fill:none;stroke:#00AEEF;stroke-width:2.016;stroke-linejoin:round;stroke-miterlimit:10;stroke-dasharray:7,2,2,2;" x1="1011.969" y1="955.275" x2="817.796" y2="955.275"/>
		
			<line style="fill:none;stroke:#00AEEF;stroke-width:2.016;stroke-linejoin:round;stroke-miterlimit:10;stroke-dasharray:7,2,2,2;" x1="1011.969" y1="439.37" x2="817.796" y2="439.37"/>
		
			<line style="fill:none;stroke:#00AEEF;stroke-width:2.016;stroke-linejoin:round;stroke-miterlimit:10;stroke-dasharray:7,2,2,2;" x1="1013.385" y1="953.852" x2="1013.385" y2="440.787"/>
		
			<line style="fill:none;stroke:#00AEEF;stroke-width:2.016;stroke-linejoin:round;stroke-miterlimit:10;stroke-dasharray:7,2,2,2;" x1="439.371" y1="1152.283" x2="816.378" y2="1152.286"/>
	</g>
	<g>
		
			<line style="fill:none;stroke:#00AEEF;stroke-width:2.016;stroke-linejoin:round;stroke-miterlimit:10;stroke-dasharray:7,2,2,2;" x1="439.371" y1="48.189" x2="816.379" y2="48.189"/>
		
			<line style="fill:none;stroke:#00AEEF;stroke-width:2.016;stroke-linejoin:round;stroke-miterlimit:10;stroke-dasharray:7,2,2,2;" x1="439.371" y1="1346.457" x2="816.379" y2="1346.457"/>
		
			<line style="fill:none;stroke:#00AEEF;stroke-width:2.016;stroke-linejoin:round;stroke-miterlimit:10;stroke-dasharray:7,2,2,2;" x1="48.236" y1="953.858" x2="48.236" y2="440.787"/>
		
			<line style="fill:none;stroke:#00AEEF;stroke-width:2.016;stroke-linejoin:round;stroke-miterlimit:10;stroke-dasharray:7,2,2,2;" x1="1207.565" y1="953.858" x2="1207.565" y2="440.787"/>
	</g>
</g>
<g id="Faca">
	<g>
		
			<line style="fill:none;stroke:#000000;stroke-width:2.016;stroke-linejoin:round;stroke-miterlimit:10;" x1="473.386" y1="14.173" x2="782.362" y2="14.17"/>
		
			<line style="fill:none;stroke:#000000;stroke-width:2.016;stroke-linejoin:round;stroke-miterlimit:10;" x1="14.168" y1="919.837" x2="14.168" y2="474.803"/>
		<path style="fill:none;stroke:#000000;stroke-width:2.016;stroke-linejoin:round;stroke-miterlimit:10;" d="M437.953,430.866
			l-8.504-8.504V313.228c-0.04-12.566-10.111-22.637-22.677-22.677H266.457c-12.566,0.04-22.637,10.111-22.677,22.677V439.37"/>
		
			<line style="fill:none;stroke:#000000;stroke-width:2.016;stroke-linejoin:round;stroke-miterlimit:10;" x1="242.363" y1="440.787" x2="48.184" y2="440.787"/>
		
			<line style="fill:none;stroke:#000000;stroke-width:2.016;stroke-linejoin:round;stroke-miterlimit:10;" x1="437.953" y1="243.779" x2="437.953" y2="439.367"/>
		
			<line style="fill:none;stroke:#000000;stroke-width:2.016;stroke-linejoin:round;stroke-miterlimit:10;" x1="439.371" y1="242.359" x2="439.371" y2="48.189"/>
		
			<line style="fill:none;stroke:#000000;stroke-width:2.016;stroke-linejoin:round;stroke-miterlimit:10;" x1="242.363" y1="440.787" x2="243.78" y2="439.37"/>
		
			<line style="fill:none;stroke:#000000;stroke-width:2.016;stroke-linejoin:round;stroke-miterlimit:10;" x1="437.953" y1="243.779" x2="439.371" y2="242.362"/>
		
			<line style="fill:none;stroke:#000000;stroke-width:2.016;stroke-linejoin:round;stroke-miterlimit:10;" x1="817.796" y1="243.779" x2="817.796" y2="439.367"/>
		
			<line style="fill:none;stroke:#000000;stroke-width:2.016;stroke-linejoin:round;stroke-miterlimit:10;" x1="816.379" y1="242.359" x2="816.378" y2="48.186"/>
		
			<line style="fill:none;stroke:#000000;stroke-width:2.016;stroke-linejoin:round;stroke-miterlimit:10;" x1="817.796" y1="243.779" x2="816.378" y2="242.362"/>
		
			<line style="fill:none;stroke:#000000;stroke-width:2.016;stroke-linejoin:round;stroke-miterlimit:10;" x1="242.363" y1="953.852" x2="243.78" y2="955.27"/>
		
			<line style="fill:none;stroke:#000000;stroke-width:2.016;stroke-linejoin:round;stroke-miterlimit:10;" x1="242.363" y1="953.852" x2="48.184" y2="953.852"/>
		<path style="fill:none;stroke:#000000;stroke-width:2.016;stroke-linejoin:round;stroke-miterlimit:10;" d="M817.796,430.866
			l8.504-8.504V313.228c0.04-12.566,10.111-22.637,22.677-22.677h140.315c12.566,0.04,22.637,10.111,22.677,22.677V439.37"/>
		
			<line style="fill:none;stroke:#000000;stroke-width:2.016;stroke-linejoin:round;stroke-miterlimit:10;" x1="1013.385" y1="440.787" x2="1011.969" y2="439.37"/>
		
			<line style="fill:none;stroke:#000000;stroke-width:2.016;stroke-linejoin:round;stroke-miterlimit:10;" x1="1013.385" y1="953.852" x2="1011.969" y2="955.27"/>
		
			<line style="fill:none;stroke:#000000;stroke-width:2.016;stroke-linejoin:round;stroke-miterlimit:10;" x1="437.953" y1="1150.866" x2="437.953" y2="955.278"/>
		
			<line style="fill:none;stroke:#000000;stroke-width:2.016;stroke-linejoin:round;stroke-miterlimit:10;" x1="437.953" y1="1150.866" x2="439.371" y2="1152.283"/>
		
			<line style="fill:none;stroke:#000000;stroke-width:2.016;stroke-linejoin:round;stroke-miterlimit:10;" x1="817.796" y1="1150.866" x2="817.796" y2="955.278"/>
		
			<line style="fill:none;stroke:#000000;stroke-width:2.016;stroke-linejoin:round;stroke-miterlimit:10;" x1="817.796" y1="1150.866" x2="816.378" y2="1152.283"/>
		<path style="fill:none;stroke:#000000;stroke-width:2.016;stroke-linejoin:round;stroke-miterlimit:10;" d="M437.953,963.779
			l-8.504,8.504v109.134c-0.04,12.566-10.111,22.637-22.677,22.677H266.457c-12.566-0.04-22.637-10.111-22.677-22.677V955.275"/>
		<path style="fill:none;stroke:#000000;stroke-width:2.016;stroke-linejoin:round;stroke-miterlimit:10;" d="M817.796,963.779
			l8.504,8.504v109.134c0.04,12.566,10.111,22.637,22.677,22.677h140.315c12.566-0.04,22.637-10.111,22.677-22.677V955.275"/>
		
			<line style="fill:none;stroke:#000000;stroke-width:2.016;stroke-linejoin:round;stroke-miterlimit:10;" x1="816.379" y1="1152.286" x2="816.378" y2="1346.459"/>
		
			<line style="fill:none;stroke:#000000;stroke-width:2.016;stroke-linejoin:round;stroke-miterlimit:10;" x1="439.371" y1="1152.286" x2="439.371" y2="1346.456"/>
		
			<line style="fill:none;stroke:#000000;stroke-width:2.016;stroke-linejoin:round;stroke-miterlimit:10;" x1="473.386" y1="1380.472" x2="782.362" y2="1380.475"/>
		
			<line style="fill:none;stroke:#000000;stroke-width:2.016;stroke-linejoin:round;stroke-miterlimit:10;" x1="1013.385" y1="953.852" x2="1207.565" y2="953.852"/>
		
			<line style="fill:none;stroke:#000000;stroke-width:2.016;stroke-linejoin:round;stroke-miterlimit:10;" x1="1013.385" y1="440.787" x2="1207.565" y2="440.787"/>
		
			<line style="fill:none;stroke:#000000;stroke-width:2.016;stroke-linejoin:round;stroke-miterlimit:10;" x1="1241.581" y1="919.837" x2="1241.581" y2="474.803"/>
		
			<line style="fill:none;stroke:#000000;stroke-width:2.016;stroke-linejoin:round;stroke-miterlimit:10;" x1="439.371" y1="48.189" x2="473.386" y2="14.173"/>
		
			<line style="fill:none;stroke:#000000;stroke-width:2.016;stroke-linejoin:round;stroke-miterlimit:10;" x1="816.378" y1="48.186" x2="782.362" y2="14.17"/>
		
			<line style="fill:none;stroke:#000000;stroke-width:2.016;stroke-linejoin:round;stroke-miterlimit:10;" x1="439.371" y1="1346.456" x2="473.386" y2="1380.472"/>
		
			<line style="fill:none;stroke:#000000;stroke-width:2.016;stroke-linejoin:round;stroke-miterlimit:10;" x1="816.378" y1="1346.459" x2="782.362" y2="1380.475"/>
		
			<line style="fill:none;stroke:#000000;stroke-width:2.016;stroke-linejoin:round;stroke-miterlimit:10;" x1="48.184" y1="953.852" x2="14.168" y2="919.837"/>
		
			<line style="fill:none;stroke:#000000;stroke-width:2.016;stroke-linejoin:round;stroke-miterlimit:10;" x1="48.184" y1="440.787" x2="14.168" y2="474.803"/>
		
			<line style="fill:none;stroke:#000000;stroke-width:2.016;stroke-linejoin:round;stroke-miterlimit:10;" x1="1207.565" y1="440.787" x2="1241.581" y2="474.803"/>
		
			<line style="fill:none;stroke:#000000;stroke-width:2.016;stroke-linejoin:round;stroke-miterlimit:10;" x1="1207.565" y1="953.852" x2="1241.581" y2="919.837"/>
	</g>
	<g>
	</g>
	<g>
	</g>
	<g>
	</g>
	<g>
	</g>
	<g>
	</g>
	<g>
	</g>
</g>
</svg>
