<?xml version="1.0" encoding="utf-8"?>
<!-- Generator: Adobe Illustrator 30.6.0, SVG Export Plug-In . SVG Version: 9.03 Build 0)  -->
<svg version="1.1" xmlns="http://www.w3.org/2000/svg" xmlns:xlink="http://www.w3.org/1999/xlink" x="0px" y="0px"
	 viewBox="0 0 1235.906 549.921" style="enable-background:new 0 0 1235.906 549.921;" xml:space="preserve">
<g id="Arte">
</g>
<g id="Vinco">
	<g>
		
			<line style="fill:none;stroke:#00AEEF;stroke-width:2.016;stroke-linejoin:round;stroke-miterlimit:10;stroke-dasharray:7,2,2,2;" x1="639.782" y1="536.721" x2="639.782" y2="12.312"/>
		
			<line style="fill:none;stroke:#00AEEF;stroke-width:2.016;stroke-linejoin:round;stroke-miterlimit:10;stroke-dasharray:7,2,2,2;" x1="57.264" y1="12.312" x2="57.264" y2="536.721"/>
		
			<line style="fill:none;stroke:#00AEEF;stroke-width:2.016;stroke-linejoin:round;stroke-miterlimit:10;stroke-dasharray:7,2,2,2;" x1="838.208" y1="536.721" x2="838.208" y2="12.312"/>
		
			<line style="fill:none;stroke:#00AEEF;stroke-width:2.016;stroke-linejoin:round;stroke-miterlimit:10;stroke-dasharray:7,2,2,2;" x1="255.688" y1="536.721" x2="255.688" y2="12.312"/>
	</g>
</g>
<g id="Faca">
	<g>
		
			<line style="fill:none;stroke:#000000;stroke-width:2.016;stroke-linejoin:round;stroke-miterlimit:10;" x1="125.007" y1="12.312" x2="57.264" y2="12.312"/>
		
			<line style="fill:none;stroke:#000000;stroke-width:2.016;stroke-linejoin:round;stroke-miterlimit:10;" x1="639.782" y1="12.312" x2="707.527" y2="12.312"/>
		
			<line style="fill:none;stroke:#000000;stroke-width:2.016;stroke-linejoin:round;stroke-miterlimit:10;" x1="255.688" y1="12.312" x2="187.944" y2="12.312"/>
		
			<line style="fill:none;stroke:#000000;stroke-width:2.016;stroke-linejoin:round;stroke-miterlimit:10;" x1="838.208" y1="536.721" x2="639.782" y2="536.721"/>
		
			<line style="fill:none;stroke:#000000;stroke-width:2.016;stroke-linejoin:round;stroke-miterlimit:10;" x1="57.264" y1="12.312" x2="14.744" y2="27.501"/>
		<polyline style="fill:none;stroke:#000000;stroke-width:2.016;stroke-linejoin:round;stroke-miterlimit:10;" points="
			57.264,536.721 14.744,521.531 14.744,27.501 		"/>
		
			<line style="fill:none;stroke:#000000;stroke-width:2.016;stroke-linejoin:round;stroke-miterlimit:10;" x1="57.264" y1="536.721" x2="255.688" y2="536.721"/>
		
			<line style="fill:none;stroke:#000000;stroke-width:2.016;stroke-linejoin:round;stroke-miterlimit:10;" x1="1220.886" y1="536.721" x2="838.208" y2="536.721"/>
		<polyline style="fill:none;stroke:#000000;stroke-width:2.016;stroke-linejoin:round;stroke-miterlimit:10;" points="
			838.208,12.312 1220.886,12.312 1220.886,536.721 		"/>
		
			<line style="fill:none;stroke:#000000;stroke-width:2.016;stroke-linejoin:round;stroke-miterlimit:10;" x1="639.782" y1="536.721" x2="255.688" y2="536.721"/>
		
			<line style="fill:none;stroke:#000000;stroke-width:2.016;stroke-linejoin:round;stroke-miterlimit:10;" x1="255.688" y1="12.312" x2="639.782" y2="12.312"/>
		<path style="fill:none;stroke:#000000;stroke-width:2.016;stroke-linejoin:round;stroke-miterlimit:10;" d="M125.007,12.312
			c3.851,0.004,7.201,2.569,8.21,6.285c2.858,10.529,12.349,17.796,23.259,17.808c10.91-0.011,20.401-7.279,23.258-17.808
			c1.008-3.717,4.359-6.283,8.211-6.286"/>
		<path style="fill:none;stroke:#000000;stroke-width:2.016;stroke-linejoin:round;stroke-miterlimit:10;" d="M707.527,12.312
			c3.85,0.004,7.201,2.569,8.21,6.285c2.857,10.529,12.35,17.797,23.26,17.808c10.909-0.012,20.4-7.279,23.257-17.808
			c1.008-3.717,4.359-6.283,8.21-6.286l67.744,0.001"/>
	</g>
	<g>
	</g>
	<g>
	</g>
	<g>
	</g>
	<g>
	</g>
	<g>
	</g>
	<g>
	</g>
</g>
</svg>
