<?xml version="1.0" encoding="UTF-8"?>
<svg id="Layer_1" data-name="Layer 1" xmlns="http://www.w3.org/2000/svg" xmlns:xlink="http://www.w3.org/1999/xlink" viewBox="0 0 432.49 612.39">
  <defs>
    <style>
      .cls-1 {
        filter: url(#drop-shadow-1);
      }

      .cls-2 {
        fill: #231f20;
      }

      .cls-3 {
        fill: #fff;
      }

      .cls-4 {
        opacity: .4;
      }

      .cls-5 {
        fill: #d8ccc7;
      }

      .cls-6 {
        fill: #121617;
      }

      .cls-7 {
        fill: #dfcec5;
      }
    </style>
    <symbol id="Deleted_Symbol" data-name="Deleted Symbol" viewBox="0 0 -32766 -32766"/>
    <symbol id="Logo_2" data-name="Logo 2" viewBox="0 0 224.65 90.44">
      <g>
        <use width="-32766" height="-32766" transform="translate(25823.12 25751.9) scale(1.57)" xlink:href="#Deleted_Symbol"/>
        <use width="-32766" height="-32766" transform="translate(25933.87 25727.82) scale(1.57)" xlink:href="#Deleted_Symbol"/>
        <use width="-32766" height="-32766" transform="translate(21663.64 21582.05) scale(1.31)" xlink:href="#Deleted_Symbol"/>
        <use width="-32766" height="-32766" transform="translate(21646.88 21596.47) scale(1.31)" xlink:href="#Deleted_Symbol"/>
        <use width="-32766" height="-32766" transform="translate(13747.63 13692.14) scale(.83)" xlink:href="#Deleted_Symbol"/>
        <g>
          <g>
            <g>
              <path class="cls-6" d="M0,18.79c.92-.39,1.72-.58,2.4-.58s1.27.06,1.79.19c.52.13,1.04.34,1.58.64.54.3,1.04.67,1.51,1.1.9.86,1.67,1.82,2.3,2.9l4.84,9.07,7.02-12.07h.22l2.52,14.23c.39,2.19,1.06,3.94,2.01,5.23.95,1.31,2.26,1.96,3.92,1.96h.31v.24c-.89.24-1.76.36-2.61.36-1.74,0-3.33-.69-4.77-2.06-1.39-1.31-2.33-3.22-2.83-5.73l-1.19-7.04-4.55,7.89c-.61,1.02-.93,1.91-.94,2.69h-.22l-6.03-11.42-1.19,9.68c-.05.37.11.67.48.9.15.1.3.15.46.15h.39v.22H2.37v-.24h.39c.42,0,.79-.12,1.12-.38.33-.25.54-.59.62-1.03l1.65-11.54c-.73-1.29-1.56-2.44-2.49-3.44-1.05-1.13-2.15-1.69-3.29-1.69-.11,0-.22,0-.31.02l-.05-.24Z"/>
              <path class="cls-6" d="M43.6,37.09h.22v.24h-7.72v-.24h.22c.35,0,.62-.11.79-.33.17-.22.25-.42.25-.62s-.04-.39-.12-.58l-1.19-2.98h-5.66l-1.26,2.98c-.08.21-.12.41-.12.59s.08.39.25.6c.17.22.44.33.81.33h.19v.24h-5.18v-.24h.22c.37,0,.74-.11,1.11-.34s.68-.56.92-1.02l5.59-12.65c.76-1.6,1.16-2.65,1.21-3.17h.22l7.19,15.78c.24.47.55.82.92,1.05.37.23.75.35,1.14.35ZM30.8,31.57h4.84l-2.35-5.95-2.49,5.95Z"/>
              <path class="cls-6" d="M50.76,21.46h-1.11v14.11c.02.6.27,1.04.77,1.33.24.13.5.19.77.19h.31v.24h-7.36v-.24h.31c.58,0,1.02-.25,1.33-.75.13-.23.2-.48.22-.75v-13.43c-.02-.42-.17-.78-.47-1.08-.3-.3-.66-.45-1.08-.45h-.31v-.24h8.3c1.56,0,2.89.34,3.97,1.02.55.34.98.81,1.31,1.42.32.6.48,1.29.48,2.06s-.13,1.47-.4,2.12c-.27.65-.71,1.21-1.33,1.69-.62.48-1.37.77-2.24.87.94.31,1.76,1.02,2.47,2.13,1.74,2.79,3.03,4.45,3.87,4.98.42.26.94.4,1.57.41v.24h-2.37c-1.37,0-2.52-.19-3.44-.57-.92-.38-1.67-1.03-2.25-1.95-.29-.47-.66-1.17-1.11-2.12-.45-.94-.75-1.62-.9-2.02-.44-.97-.98-1.51-1.65-1.62v-.24h.75c.73,0,1.37-.22,1.92-.65s.93-1.15,1.12-2.13c.06-.34.1-.6.1-.8,0-1.32-.27-2.28-.8-2.87s-1.22-.89-2.06-.91h-.73Z"/>
              <path class="cls-6" d="M62.16,37.09c.42,0,.78-.15,1.08-.45.3-.3.46-.66.47-1.08v-13.43c-.02-.42-.17-.77-.47-1.06-.3-.29-.66-.44-1.08-.44h-.31v-.24h7.36l-.02.24h-.29c-.42,0-.78.15-1.09.44-.31.29-.46.65-.46,1.06v13.43c0,.42.15.78.46,1.08s.67.45,1.09.45h.29l.02.24h-7.36v-.24h.31Z"/>
              <path class="cls-6" d="M89.94,20.63c-.4,0-.75.14-1.04.42s-.44.62-.46,1.03v12.49c0,1.08.07,1.99.22,2.73l.07.36h-.22l-12.22-11.64v9.61c0,.4.14.75.44,1.03.29.28.64.42,1.04.42h.46v.24h-7.33v-.24h.44c.42,0,.77-.14,1.07-.42.29-.28.44-.63.44-1.05v-12.56c0-1.06-.07-1.95-.22-2.66l-.05-.36h.22l12.22,11.64v-9.56c-.02-.42-.17-.77-.46-1.05s-.64-.42-1.04-.42h-.44v-.24h7.33v.24h-.46Z"/>
              <path class="cls-6" d="M108.81,37.09h.22v.24h-7.72v-.24h.22c.35,0,.62-.11.79-.33.17-.22.25-.42.25-.62s-.04-.39-.12-.58l-1.19-2.98h-5.66l-1.26,2.98c-.08.21-.12.41-.12.59s.08.39.25.6c.17.22.44.33.81.33h.19v.24h-5.18v-.24h.22c.37,0,.74-.11,1.11-.34s.68-.56.92-1.02l5.59-12.65c.76-1.6,1.16-2.65,1.21-3.17h.22l7.19,15.78c.24.47.55.82.92,1.05.37.23.75.35,1.14.35ZM96.01,31.57h4.84l-2.35-5.95-2.49,5.95Z"/>
            </g>
            <g>
              <path class="cls-6" d="M41.26,54.91c-.03.26-.18.36-.3.46-.45.39-.9.77-1.35,1.14-1.25,1.03-2.42,2.15-3.53,3.33-.06.06-.11.13-.19.22.08.5.19,1.01.26,1.53.44,3.39.13,6.68-1.24,9.83-.35.81-.76,1.58-1.31,2.26-.33.4-.7.78-1.09,1.13-.36.32-.8.53-1.28.63-1.09.24-2.08-.29-2.46-1.35-.22-.6-.27-1.24-.23-1.88.07-1.1.38-2.15.8-3.17.72-1.72,1.65-3.33,2.77-4.82.8-1.07,1.66-2.09,2.49-3.13.13-.17.27-.34.41-.5-.21-1.32-.64-2.52-1.43-3.57-.26-.35-.56-.68-.9-.95-1.08-.89-2.28-1.02-3.57-.54-.18.07-.36.16-.54.24-.17.07-.34.07-.49-.05-.17-.14-.22-.33-.15-.53.07-.21.15-.41.26-.6.69-1.24,1.38-2.48,2.08-3.72.96-1.69,1.94-3.37,2.87-5.09.49-.9.91-1.84,1.3-2.79.24-.58.39-1.21.54-1.82.08-.31.06-.65.07-.98,0-.15-.04-.3-.09-.45-.13-.38-.37-.53-.76-.43-.29.08-.58.21-.84.35-.54.3-.99.72-1.43,1.14-.72.7-1.37,1.47-1.97,2.28-1.44,1.94-2.58,4.06-3.56,6.26-1.37,3.07-2.34,6.26-3.02,9.55-.22,1.09-.42,2.19-.58,3.29-.1.71-.13,1.44-.19,2.16-.16,2.07-.39,4.14-.69,6.19-.08.56-.18,1.12-.29,1.68-.03.17-.09.34-.16.49-.03.06-.15.11-.22.1-.07,0-.15-.09-.18-.16-.03-.07-.02-.17-.02-.26.06-.83.14-1.66.18-2.49.12-2.89.23-5.77.32-8.66.08-2.54.13-5.07.15-7.61.02-2.21-.04-4.42-.19-6.62-.19-2.79-.47-5.58-1.03-8.33-.24-1.18-.59-2.33-1.06-3.44-.18-.42-.39-.83-.69-1.18-.56-.64-1-.68-1.6-.09-.31.3-.59.65-.84,1.01-.89,1.29-1.48,2.72-1.94,4.21-.08.27-.12.55-.08.84.02.14-.02.3-.08.44-.09.21-.31.31-.54.27-.21-.04-.36-.16-.4-.38-.03-.15-.05-.31-.02-.45.07-.34.13-.69.25-1.01.51-1.35,1.13-2.66,1.93-3.86.3-.45.65-.88,1.01-1.29.21-.24.48-.45.75-.63.53-.35,1.08-.31,1.6.04.37.25.68.56.9.94.25.41.48.83.68,1.27.58,1.28.97,2.62,1.28,3.99.54,2.44.89,4.9,1.1,7.39.3,3.65.4,7.29.27,10.95,0,.13,0,.76,0,.94.17-.62.22-.92.26-1.13.55-2.3,1.22-4.56,2.09-6.76.9-2.31,1.97-4.53,3.3-6.63.94-1.48,2-2.87,3.26-4.1.36-.35.74-.68,1.15-.97.3-.21.65-.38,1-.49.78-.25,1.45.07,1.78.81.26.57.31,1.18.23,1.8-.08.63-.23,1.25-.42,1.85-.35,1.06-.8,2.08-1.3,3.08-1.22,2.45-2.62,4.8-4.06,7.12-.21.33-.43.66-.63,1-.06.11-.11.23-.18.39.18-.02.31-.02.44-.04,1.04-.13,2,.11,2.88.66.58.37,1.06.84,1.48,1.38.57.73,1.29,2.13,1.57,3.09l.37-.37c.78-.76,1.55-1.54,2.34-2.3.77-.74,1.62-1.41,2.49-2.03.06-.04.14-.06.26-.12ZM35.12,61.32c0-.06-.03-.19-.05-.36-.11.1-.21.23-.25.27-1.56,1.83-3.03,3.73-4.18,5.86-.53.98-.99,2-1.31,3.07-.27.89-.41,1.79-.35,2.71.02.4.11.78.29,1.13.31.63.89.9,1.58.77.35-.06.67-.21.93-.45.29-.26.57-.54.82-.85.47-.58.82-1.24,1.13-1.91,1.48-3.28,1.83-6.71,1.4-10.25Z"/>
              <path class="cls-6" d="M52.02,55.05c0,.07-.06.11-.11.11-.16,0-.29.07-.4.19-.17.18-.34.36-.5.55-.51.61-1.03,1.23-1.53,1.85-.26.33-.5.67-.74,1.02-.91,1.3-1.71,2.66-2.49,4.04-.47.83-.93,1.66-1.4,2.49-.27.48-.56.95-.88,1.41-.23.33-.49.64-.78.91-.18.17-.38.31-.61.41-.41.18-.82.15-1.2-.08-.25-.15-.45-.35-.61-.59-.22-.32-.37-.66-.49-1.03-.2-.62-.26-1.27-.26-2.19,0-.54.13-1.32.34-2.1.24-.89.54-1.75.91-2.59.26-.61.55-1.21.82-1.82.12-.26.22-.53.33-.79.03-.06,0-.17-.06-.21-.12-.09-.25-.18-.37-.27-.26-.2-.51-.39-.76-.6l-.58-.63c-.04-.06-.09-.13-.13-.19-.47-.67-.71-1.44-.76-2.25-.09-1.29.16-2.5.8-3.63.11-.2.24-.39.38-.57.11-.15.25-.29.39-.42.11-.1.25-.19.38-.24.41-.17.83-.07,1.07.37.06.12.12.24.14.37.07.34.12.67.09,1.02-.06.65-.18,1.28-.37,1.9-.25.78-.56,1.54-.88,2.29-.04.11-.29.64-.33.75,0,0-.07,0,.38.43.25.24.54.43.83.6.18.11.36.21.54.33.35.24.49.58.42.99-.04.22-.11.45-.19.66-.17.44-.36.88-.55,1.32-.41.95-.8,1.9-1.11,2.88-.19.6-.36,1.21-.46,1.83-.06.39-.12.79-.15,1.19-.04.57.03,1.14.19,1.7.06.2.14.39.26.57.06.09.14.18.22.26.17.15.37.19.58.1.2-.08.38-.19.52-.34.2-.2.4-.41.58-.63.39-.47.71-.99,1.03-1.51.54-.9,1.07-1.8,1.61-2.7.44-.74.88-1.47,1.33-2.2.5-.81,1.05-1.59,1.64-2.34.52-.66,1.02-1.33,1.57-1.97.19-.21.39-.42.59-.62.11-.11.23-.2.38-.25.13-.05.26-.03.36.09.03.04.05.1.05.15ZM42.29,50.89c.11-.44.19-.9.18-1.36,0-.19-.02-.38-.03-.57,0-.15-.05-.3-.11-.44-.1-.23-.32-.3-.51-.15-.1.08-.21.17-.29.28-.12.17-.24.34-.34.53-.21.39-.37.79-.47,1.22-.18.75-.23,1.5-.12,2.27.06.42.17.82.35,1.2.02.03.12.25.14.28l.09-.2c.45-.99.85-2,1.1-3.06Z"/>
              <path class="cls-6" d="M60.28,55.07c-.06.15-.11.31-.19.45-.35.68-.7,1.35-1.06,2.02-.32.59-.74,1.12-1.17,1.63-.42.5-.88.98-1.38,1.41-.31.26-.63.5-.98.69-.31.17-.63.3-.98.37-.67.15-1.26-.02-1.81-.4-.34-.24-.61-.55-.83-.9-.21-.33-.45-.9-.55-1.27-.02-.09-.05-.18-.07-.27l-.12-.83c0-.26,0-.52,0-.77,0-.59.06-1.18.21-1.76.21-.85.54-1.65.98-2.4.13-.23.28-.44.45-.64.25-.3.54-.55.87-.74.11-.06.23-.11.35-.15.77-.22,1.24.02,1.45.56.1.25.14.51.1.79-.05.31-.13.6-.25.89-.25.59-.58,1.14-.95,1.66-.5.68-1.56,1.71-2.17,2.29,0,0,0,0,0,0,0,0,.01.09.08.71.05.44.13.87.26,1.29.1.33.26.65.49.92.35.41.79.64,1.34.62.28,0,.54-.07.79-.18.3-.13.59-.3.85-.5.59-.44,1.11-.97,1.59-1.53.65-.78,1.19-1.63,1.65-2.53.22-.42.42-.85.63-1.27.05-.11.11-.22.17-.33.04-.07.16-.11.21-.07.06.04.1.15.07.22ZM52.18,57.28s.12-.12.17-.17c.04-.04.11-.11.16-.15.61-.61,1.17-1.27,1.65-1.99.23-.34.43-.7.61-1.07.14-.3.23-.61.3-.94.04-.22.04-.45-.05-.66-.12-.26-.43-.38-.7-.29-.18.07-.34.16-.49.29-.2.18-.38.38-.52.6-.17.26-.3.54-.42.82-.37.9-.58,1.84-.65,2.9,0,.05-.02.2-.04.34,0,.07-.02.31-.02.31Z"/>
              <path class="cls-6" d="M75.66,54.94s-.05.07-.08.09c-.78.42-1.51.94-2.23,1.45-.88.62-1.75,1.24-2.61,1.88-.46.34-.91.71-1.36,1.07-.09.07-.13.12-.13.12,0,.14.02.44.02.59,0,.45.02.91,0,1.36-.09,2.26-.62,4.4-1.63,6.42-.25.5-.54.98-.87,1.42-.26.35-.55.67-.89.94-.37.31-.76.56-1.23.69-.1.03-.2.06-.3.07-.95.13-1.52-.46-1.74-1.15-.1-.31-.16-.64-.13-.93,0-.46.09-.86.19-1.26.19-.74.51-1.43.88-2.1.59-1.07,1.3-2.05,2.09-2.98.66-.77,1.37-1.48,2.11-2.17.09-.08.18-.17.27-.25.1-.09.17-.14.17-.14-.01-.19-.05-.56-.07-.74-.12-.9-.25-1.8-.42-2.69-.08-.42-.14-.85-.21-1.28l-.07-.7c-.76.61-1.5,1.23-2.23,1.86-1.21,1.03-2.41,2.06-3.61,3.1l.02.11c0,.12.03.37.03.49,0,.38.03.76.02,1.14-.04,1.9-.54,3.71-1.52,5.43-.24.42-.52.83-.85,1.21-.26.3-.54.57-.87.81-.36.26-.75.49-1.22.6-.1.02-.2.05-.3.06-.94.13-1.53-.36-1.76-.93-.11-.26-.17-.53-.15-.78,0-.38.07-.72.17-1.06.18-.63.49-1.21.85-1.78.57-.91,1.26-1.75,2.04-2.55.65-.66,1.34-1.27,2.07-1.87.09-.07.18-.15.27-.22.1-.08.16-.12.16-.12-.01-.16-.06-.47-.09-.62-.14-.75-.28-1.5-.46-2.25-.09-.35-.15-.71-.24-1.07l-.13-.98c-.1-.52-.06-1.04,0-1.55.07-.56.28-1.08.63-1.57.11-.15.24-.28.38-.41.1-.09.22-.16.34-.22.35-.17.75-.09.97.2.18.22.25.47.21.74-.04.26-.1.52-.22.75-.12.24-.26.47-.41.7-.17.26-.58.78-.79,1.02,0,0-.01.12.04.36.07.36.12.72.2,1.08.2.9.41,1.8.54,2.71l.03.22c.91-.8,1.82-1.6,2.74-2.4.85-.74,1.73-1.47,2.6-2.2.17-.14.34-.28.52-.42v-.09c-.1-.62-.05-1.23.03-1.85.08-.67.3-1.28.66-1.85.11-.17.25-.33.39-.48.1-.1.22-.18.35-.25.36-.19.75-.08.97.26.17.27.24.57.19.89-.04.31-.11.61-.24.89-.13.28-.27.56-.43.82-.18.3-.6.91-.81,1.19,0,0-.02.15.03.43.06.43.11.86.18,1.29.18,1.08.37,2.15.48,3.24l.03.36c.09-.06.32-.2.4-.26,1.04-.78,2.08-1.56,3.13-2.33.57-.41,1.15-.81,1.73-1.2.29-.2.59-.38.93-.49.08-.02.16-.03.24-.03.01,0,.04.02.04.04,0,.04.02.08,0,.11ZM60.6,61.69c0-.29-.01-.59-.02-.88v-.38c-.33.27-.84.72-1.15.99-1.1.95-2.07,1.99-2.87,3.13-.27.39-.52.79-.73,1.21-.23.45-.39.91-.48,1.4-.07.42-.07.83.11,1.23.08.18.19.34.37.47.19.14.41.22.68.21.26,0,.49-.07.71-.17.41-.18.74-.44,1.03-.74.29-.3.54-.62.75-.95.24-.38.45-.78.62-1.19.6-1.4.94-2.84.98-4.32ZM60.64,54.26c.4-.45.79-1.1.9-1.66.01-.07,0-.14,0-.23-.02-.06-.05-.14-.08-.22-.03-.07-.14-.08-.2-.04-.13.1-.2.22-.26.35-.26.52-.37,1.06-.37,1.61v.19ZM68.22,60.83v-.45c-.33.31-.84.83-1.17,1.15-1.12,1.11-2.11,2.31-2.93,3.66-.28.46-.54.93-.75,1.42-.24.53-.41,1.08-.5,1.65-.08.49-.08.99.08,1.47.08.22.19.41.36.57.19.17.41.27.67.27.26,0,.49-.07.71-.19.41-.21.75-.51,1.05-.85.29-.35.55-.72.77-1.12.25-.45.46-.92.65-1.4.63-1.65,1-3.35,1.07-5.12,0-.35,0-.7,0-1.05ZM68.42,53.04c.41-.53.82-1.29.94-1.95.01-.08,0-.16.01-.28-.02-.07-.04-.17-.08-.26-.03-.08-.14-.1-.2-.05-.13.11-.2.26-.27.41-.27.61-.39,1.25-.4,1.91v.22Z"/>
              <path class="cls-6" d="M85.68,54.79c0,.06-.01.12-.03.18-.03.1-.07.19-.12.28-.08.14-.16.29-.25.42-.64.96-1.33,1.88-2.04,2.79-.28.36-.59.68-.94.98-.27.23-.55.43-.88.57-.44.19-.85.11-1.22-.17-.2-.15-.35-.35-.49-.55-.31-.47-.51-.99-.61-1.54-.05-.3-.09-.61-.13-.92,0-.02,0-.1,0-.1,0,0-.07.07-.1.12-.09.12-.2.31-.29.47-.36.62-.74,1.24-1.18,1.81-.29.38-.63.71-1.02.98-.24.16-.5.28-.8.29-.5.02-.88-.19-1.13-.62-.16-.27-.25-.57-.27-.88-.01-.16,0-.33,0-.49-.03-.56.1-1.1.27-1.64.16-.51.36-1.01.6-1.49.4-.81.96-1.48,1.65-2.06.29-.24.6-.44.93-.6.4-.19.83-.23,1.27-.16.36.07.66.23.85.56.04.07.06.15.08.23.02.1-.06.25-.17.3-.08.04-.24.01-.28-.05-.03-.05-.08-.1-.09-.16-.06-.26-.25-.36-.48-.41-.3-.07-.58-.02-.84.1-.2.1-.4.21-.58.35-.55.41-1.01.91-1.37,1.49-.58.95-.94,1.97-1,3.08-.01.27.01.53.03.8,0,.17.07.32.15.47.12.24.33.31.57.22.25-.1.47-.25.68-.42.37-.3.7-.64,1.01-1,.52-.62,1-1.26,1.43-1.94.15-.24.29-.49.38-.77.11-.36.29-.68.53-.97.05-.06.11-.12.17-.18.08-.08.21-.1.28-.04.07.05.11.13.1.21-.01.1-.04.2-.07.3-.13.42-.16.85-.17,1.28-.02.54,0,1.07.05,1.61.04.45.15.89.32,1.31.07.17.16.33.27.49.13.19.32.26.54.21.12-.02.24-.06.35-.11.34-.16.63-.39.91-.64.46-.42.87-.88,1.23-1.38.63-.86,1.26-1.73,1.79-2.67.02-.03.06-.05.1-.06.04-.01.1.08.09.14Z"/>
              <path class="cls-6" d="M100.21,54.9s-.02.08-.05.11c-.78.96-1.47,1.99-2.18,3-.51.73-1.06,1.42-1.66,2.08-.24.26-.49.5-.76.72-.23.18-.47.34-.74.45-.65.27-1.26.17-1.78-.3-.18-.16-.35-.35-.49-.55-.17-.23-.32-.48-.44-.74-.36-.72-.62-1.48-.77-2.28-.16-.85-.28-1.71-.25-2.42,0-1.32.16-2.46.41-3.59.02-.08.03-.16.04-.24,0-.02-.01-.05-.02-.05-.03,0-.08,0-.1.01-.14.15-.29.29-.42.45-.37.47-.71.96-1.03,1.47-.77,1.22-1.48,2.47-2.13,3.77-.66,1.31-1.31,2.62-1.97,3.92-.12.24-.25.47-.38.71-.05.09-.13.16-.21.23-.14.12-.39.07-.49-.09-.08-.12-.13-.26-.15-.4-.09-.76-.15-1.52-.07-2.28.08-.8.16-1.6.31-2.39.14-.77.3-1.54.5-2.29.08-.32.19-.63.36-.92.04-.07.1-.13.16-.18.08-.08.28-.02.3.1.02.1.03.21.02.3-.03.29-.08.57-.12.86-.13.88-.26,1.75-.4,2.63-.13.81-.25,1.63-.34,2.45-.04.37-.12.73-.12,1.11,0,.08,0,.16.02.24,0,.02.02.04.03.04.02,0,.05,0,.06-.01.08-.12.17-.23.24-.35.31-.58.61-1.17.91-1.76.46-.9.9-1.81,1.37-2.7.68-1.3,1.43-2.55,2.27-3.75.34-.49.7-.97,1.06-1.44.11-.15.24-.28.38-.4.2-.17.43-.11.59.1.05.06.1.14.11.22.04.2.08.4.1.61.01.14,0,.29,0,.43-.05.74-.11,1.48-.17,2.22-.07,1.01-.09,2.02-.02,3.03.05.7.17,1.39.37,2.06.11.36.25.7.43,1.02.13.24.29.45.5.63.32.27.68.36,1.09.23.24-.08.46-.18.66-.33.23-.17.45-.36.67-.55.43-.39.79-.84,1.14-1.3.27-.34.52-.69.78-1.04.59-.8,1.17-1.59,1.76-2.39.12-.16.27-.31.4-.46.02-.03.07-.03.11-.03.01,0,.04.02.05.03.01.01.04.03.03.04Z"/>
              <path class="cls-6" d="M108.41,55.07c-.06.15-.11.31-.19.45-.35.68-.7,1.35-1.06,2.02-.32.59-.74,1.12-1.17,1.63-.42.5-.88.98-1.38,1.41-.31.26-.63.5-.98.69-.31.17-.63.3-.98.37-.67.15-1.26-.02-1.81-.4-.34-.24-.61-.55-.83-.9-.21-.33-.45-.9-.55-1.27-.02-.09-.05-.18-.07-.27l-.12-.83c0-.26,0-.52,0-.77,0-.59.06-1.18.21-1.76.21-.85.54-1.65.98-2.4.13-.23.28-.44.45-.64.25-.3.54-.55.87-.74.11-.06.23-.11.35-.15.77-.22,1.24.02,1.45.56.1.25.14.51.1.79-.05.31-.13.6-.25.89-.25.59-.58,1.14-.95,1.66-.5.68-1.56,1.71-2.17,2.29,0,0,0,0,0,0,0,0,.01.09.08.71.05.44.13.87.26,1.29.1.33.26.65.49.92.35.41.79.64,1.34.62.28,0,.54-.07.79-.18.3-.13.59-.3.85-.5.59-.44,1.11-.97,1.59-1.53.65-.78,1.19-1.63,1.65-2.53.22-.42.42-.85.63-1.27.05-.11.11-.22.17-.33.04-.07.16-.11.21-.07.06.04.1.15.07.22ZM100.31,57.28s.12-.12.17-.17c.04-.04.11-.11.16-.15.61-.61,1.17-1.27,1.65-1.99.23-.34.43-.7.61-1.07.14-.3.23-.61.3-.94.04-.22.04-.45-.05-.66-.12-.26-.43-.38-.7-.29-.18.07-.34.16-.49.29-.2.18-.38.38-.52.6-.17.26-.3.54-.42.82-.37.9-.58,1.84-.65,2.9,0,.05-.02.2-.04.34,0,.07-.02.31-.02.31Z"/>
              <path class="cls-6" d="M114.04,45.93c-1.36,2.24-3.9,6.11-5.33,8.3v.35c.02.43.02.59.06,1.05.05.62.07,1.23.16,1.85.18,1.27.47,2.51.97,3.69.17.4.36.78.6,1.15.18.28.39.53.65.74.24.2.5.36.8.45.38.12.73.07,1.08-.1.22-.11.42-.26.6-.44.24-.25.48-.51.71-.78.39-.48.72-1.01,1.01-1.55.65-1.2,1.23-2.43,1.71-3.7.25-.65.44-1.33.66-1.99.02-.08.06-.15.1-.22.02-.02.07-.03.1-.04,0,0,.03.03.04.05,0,.06.02.12,0,.18-.03.33-.1.65-.21.96-.17.49-.34.97-.53,1.45-.46,1.17-1,2.31-1.6,3.41-.36.65-.75,1.28-1.24,1.85-.17.2-.35.41-.55.59-.18.17-.38.32-.59.45-.57.35-1.17.36-1.77.09-.46-.21-.83-.53-1.15-.92-.31-.36-.56-.76-.78-1.19-.25-.48-.46-.97-.64-1.47-.49-1.32-.82-2.68-1-4.07l-.13-1.4c-.11-.94-.09-1.89-.08-2.84,0-.29.03-.58.05-.86,0-.14.03-.29.04-.43.06-1.07.19-2.13.35-3.19.26-1.67.57-3.33,1.02-4.96.52-1.91,1.15-3.78,2-5.58.46-.97.98-1.91,1.6-2.78.32-.45.68-.88,1.08-1.27.32-.3.66-.56,1.04-.77.29-.16.59-.28.93-.33.81-.11,1.46.16,1.93.83.16.22.27.46.35.72.18.55.25,1.12.23,1.63,0,.86-.13,1.63-.32,2.39-.27,1.12-.67,2.21-1.13,3.27-.82,1.87-1.79,3.67-2.85,5.41ZM109.88,51.89c1.63-2.53,3.22-5.08,4.71-7.7.82-1.43,1.57-2.9,2.18-4.43.48-1.21.84-2.45,1.01-3.75.07-.51.08-1.03.04-1.54-.03-.35-.11-.69-.23-1.02-.09-.25-.22-.49-.41-.69-.33-.33-.71-.47-1.18-.36-.22.05-.43.14-.62.26-.25.15-.47.33-.68.53-.36.34-.67.73-.95,1.14-.52.75-.95,1.54-1.34,2.36-.43.91-.79,1.86-1.13,2.81-.44,1.22-.77,2.48-1.09,3.73-.23.9-.44,1.8-.6,2.71-.16.89-.28,1.79-.43,2.68-.17,1.02-.25,2.04-.32,2.91-.03.67-.06,1.19-.08,1.7v.41c.33-.5.81-1.26,1.13-1.76Z"/>
              <path class="cls-6" d="M218.67,49.21c-.23.16-.52.15-.73-.03-.03-.03-.07-.06-.1-.09-.25-.28-.57-.41-.92-.47-.17-.03-.35-.06-.52-.09-.24-.03-.49-.04-.73-.05-1.09.12-2.16.3-3.23.52-2.33.49-4.61,1.17-6.86,1.95-1.67.58-3.32,1.17-4.99,1.75-1.44.5-2.88.99-4.34,1.4-1.4.39-2.83.67-4.27.85-1.84.23-3.69.27-5.54.13-2.46-.19-4.82-.78-7.07-1.83-.12-.06-.24-.11-.36-.17-.17-.09-.22-.13-.22-.13-.66.31-1.62.71-2.3.96-1.52.55-3.07.94-4.67,1.19-1.09.17-2.19.3-3.29.33-1.3.04-2.6.05-3.9-.05-.46-.04-.92-.09-1.38-.11-1.01-.05-2.02-.2-3.02-.32-1.07-.13-2.14-.31-3.21-.47-.61-.09-1.22-.17-1.83-.26-.61-.09-1.22-.19-1.83-.28-.46-.07-.92-.14-1.37-.2-.68-.09-1.35-.19-2.03-.27-1.01-.12-2.01-.23-3.02-.34-.02,0-.04,0-.07,0-2.44-.19-4.88-.45-7.33-.45-1.06,0-2.12-.03-3.17.05-.53.04-1.06.05-1.58.08-2.17.14-4.28.53-6.35,1.2-.93.3-2.49.77-4.04,2.32-.02.03-.32.37-.34.4-.7,1.05-1.34,2.07-2.05,3.1-.3.44-.66.85-1,1.26-.21.25-.45.48-.73.66-.32.21-.66.32-1.05.31-.34-.01-.64-.14-.89-.38-.22-.22-.39-.48-.52-.76-.24-.51-.4-1.04-.49-1.59-.11-.63-.15-1.23-.12-2.12,0-.83.21-1.83.51-2.82.08-.26.17-.51.32-.73.09-.14.19-.27.3-.39.05-.06.12-.11.19-.15.13-.07.27-.09.41,0,.14.08.19.22.19.37,0,.08-.02.17-.05.24-.31.77-.45,1.58-.62,2.39-.2.99-.29,2-.29,3.01,0,.39.03.78.12,1.17.04.2.11.4.17.59.04.12.1.23.16.33.27.48.71.59,1.22.39.19-.07.37-.19.52-.32.2-.18.39-.36.58-.56.44-.46.83-.97,1.19-1.5.46-.69.9-1.38,1.35-2.07.15-.22.4-.65.68-.91.23-.24.45-.51.72-.72.77-.6,1.57-1.05,2.47-1.42,1.12-.46,2.29-.78,3.48-1.03,1.23-.26,2.47-.44,3.73-.54.88-.07,1.76-.11,2.64-.14,1.99-.08,3.97.04,5.95.14,1.63.06,3.25.26,4.88.4.83.07,1.66.2,2.49.3.68.09,1.36.17,2.03.27.63.09,1.26.19,1.9.29.5.08,1,.15,1.5.22.61.09,1.22.17,1.83.26.61.09,1.22.19,1.83.28.57.08,1.13.16,1.7.22,1.78.19,3.55.36,5.34.38,2.66.03,5.28-.24,7.85-.95,1.15-.32,2.27-.72,3.36-1.2l.39-.22c-.1-.08-.32-.21-.43-.28-.92-.54-1.77-1.17-2.55-1.88-.56-.5-1.08-1.04-1.54-1.63-.87-1.11-1.49-2.34-1.82-3.71-.23-.98-.23-1.97.06-2.94.3-1.01.88-1.82,1.79-2.38.89-.54,1.84-.7,2.86-.42.3.08.59.18.87.31.89.4,1.49,1.07,1.85,1.97.06.16.12.33.18.5.02.07.09.07.14,0,.04-.05.08-.1.12-.16.54-.75,1.25-1.3,2.05-1.74,1.01-.55,2.1-.68,3.21-.46.81.16,1.46.62,1.9,1.33.32.51.48,1.08.5,1.69.02.62-.09,1.23-.3,1.82-.24.67-.56,1.29-.93,1.89-.64,1.01-1.42,1.91-2.28,2.74-1.06,1.01-2.23,1.87-3.48,2.62-.26.16-.53.31-.8.47-.07.04-.27.18-.27.18.14.08.23.13.31.17,1.48.7,3.02,1.23,4.63,1.52,1.35.25,2.71.39,4.08.39,1.08,0,2.16-.06,3.23-.16,2.21-.22,4.34-.75,6.44-1.42,1.95-.63,3.88-1.32,5.81-2.01,1.72-.62,3.45-1.21,5.21-1.72,1.76-.52,3.54-.94,5.34-1.26.07-.01.14-.02.21-.03.08-.02.15-.04.23-.05.36-.07.73-.12,1.09-.14,0,0,0,0,0,0,.4-.03.8-.04,1.2-.02.37.02.75.06,1.12.11.26.03.45.18.56.41.13.26.05.61-.18.77ZM118.81,51.43c-.09-.24-.07-.62.25-.87.09-.07.19-.12.31-.11.38,0,.68.33.63.71-.02.15-.07.3-.13.43-.08.18-.32.3-.52.28-.27-.04-.45-.19-.54-.44ZM179.38,52.21c.87-.48,1.71-1.01,2.51-1.6,1.18-.86,2.24-1.86,3.15-3,.57-.71,1.05-1.47,1.43-2.29.21-.44.37-.9.47-1.37.15-.71.11-1.41-.18-2.07-.35-.82-.98-1.28-1.85-1.44-.44-.08-.88-.07-1.32-.02-.53.07-1.03.24-1.48.53-.8.5-1.46,1.14-1.93,1.95-.1.17-.19.35-.3.51-.19.3-.39.59-.59.88-.02.04-.06.06-.1.09-.05.05-.2.02-.23-.05-.03-.06-.06-.12-.07-.18-.02-.2.03-.39.11-.58.16-.38.13-.78.03-1.17-.21-.83-.69-1.47-1.43-1.9-.4-.24-.83-.4-1.29-.49-.97-.18-1.84.02-2.6.66-.52.44-.87.99-1.1,1.62-.16.44-.2.9-.23,1.45-.05.6.07,1.27.28,1.93.39,1.23,1.01,2.34,1.86,3.32,1.11,1.28,2.4,2.34,3.86,3.18.12.07.23.12.35.18.11.05.17.07.17.07.1-.04.34-.17.44-.23Z"/>
            </g>
            <g>
              <path class="cls-6" d="M2.01,8.28c.2-.6.54-1.01,1.02-1.23.48-.22,1.32-.34,2.54-.34.25,0,.89.01,1.92.03.74.02,1.4.18,1.97.48.57.3,1.01.73,1.33,1.28.32.55.48,1.19.48,1.92,0,1.1-.35,1.99-1.05,2.67-.7.68-1.61,1.02-2.73,1.02h-3.57v-.11h.14c.18,0,.33-.06.45-.17.13-.12.2-.26.22-.43v-6.36c-.88.02-1.5.16-1.87.41-.19.13-.33.26-.43.38-.1.12-.2.28-.31.47l-.12-.04ZM5.41,7.06v6.75h2.08c.89,0,1.61-.31,2.17-.93.55-.62.83-1.43.83-2.45,0-.67-.12-1.26-.37-1.77-.25-.51-.6-.9-1.05-1.19-.45-.28-.98-.42-1.57-.42h-2.08Z"/>
              <path class="cls-6" d="M14.49,7.07h-.67v6.28c0,.18.07.34.2.47s.29.19.48.19h.13v.11s-2.3,0-2.3,0v-.11h.14c.18,0,.34-.06.47-.19s.2-.28.21-.46v-5.85c0-.18-.08-.34-.21-.47s-.29-.2-.47-.2h-.14v-.1h2.85c.64,0,1.14.18,1.51.53.37.35.55.81.55,1.38s-.17,1.05-.52,1.47c-.35.41-.77.62-1.27.62.11.05.23.15.37.29.14.14.27.29.38.45.6.86,1,1.4,1.18,1.6s.31.34.39.41c.08.07.16.15.25.22.09.07.18.13.27.17.2.1.42.15.65.15v.11h-.58c-.3,0-.58-.05-.84-.16-.26-.11-.46-.22-.58-.34-.13-.12-.24-.23-.34-.34s-.36-.47-.79-1.09-.68-.97-.75-1.06c-.07-.09-.14-.17-.22-.26-.22-.24-.45-.36-.67-.36v-.11c.06,0,.13.01.22.01s.2,0,.34-.01c.87-.02,1.42-.39,1.64-1.1.04-.14.06-.27.06-.4v-.24c-.01-.47-.14-.85-.37-1.14-.23-.29-.54-.44-.94-.46-.17,0-.38-.01-.63-.01Z"/>
              <path class="cls-6" d="M26.05,14.01h.08v.11h-2.37v-.11h.1c.15,0,.26-.05.33-.14.07-.1.11-.18.11-.27s-.01-.17-.04-.25l-.67-1.79h-2.85l-.71,1.8c-.03.08-.04.17-.04.25s.04.17.11.26c.07.09.18.14.33.14h.09v.11h-2.12v-.11h.09c.18,0,.35-.06.52-.17s.31-.28.41-.5l2.38-5.67c.26-.57.39-.93.39-1.09h.09l2.83,6.76c.1.22.23.38.4.5.17.11.34.17.53.17ZM20.86,11.24h2.59l-1.26-3.38-1.33,3.38Z"/>
              <path class="cls-6" d="M27.29,14.03c-.09.09-.2.14-.34.14s-.25-.05-.34-.14c-.09-.09-.14-.2-.14-.34s.04-.25.14-.34c.09-.09.2-.14.34-.14s.25.05.34.14c.09.09.14.2.14.34s-.05.25-.14.34Z"/>
            </g>
          </g>
          <g>
            <path class="cls-6" d="M72.95,69.88h-.02c0-.13-.05-.23-.14-.32-.09-.09-.2-.13-.33-.13h-.09v-.07s.57,0,.57,0v.53ZM72.95,73.89v.53h-.58v-.07h.09c.13,0,.23-.04.32-.13.09-.09.14-.2.14-.32h.02ZM73.4,69.35v5.08h-.47v-5.08h.47ZM74.26,69.35c.31,0,.58.06.8.17s.39.27.51.48c.12.21.18.46.18.75,0,.22-.04.42-.13.6-.09.18-.2.33-.35.45-.15.12-.31.21-.49.27s-.37.08-.57.07c-.2-.01-.39-.07-.57-.17v-.07c.16.02.31.03.44.03s.26-.03.41-.08c.14-.05.28-.13.4-.24.12-.12.22-.28.28-.49.01-.05.03-.12.04-.2s.01-.16,0-.24c0-.33-.09-.6-.26-.81-.17-.2-.41-.3-.72-.3h-.86c-.02-.07-.05-.15-.07-.22h.96ZM73.38,73.89h.02c0,.13.05.23.14.32s.2.13.32.13h.09v.07h-.58v-.53Z"/>
            <path class="cls-6" d="M79.27,69.88h-.02c0-.13-.05-.23-.14-.32-.09-.09-.2-.13-.33-.13h-.09v-.07s.57,0,.57,0v.53ZM79.27,73.89v.53h-.58v-.07h.09c.13,0,.23-.04.32-.13.09-.09.14-.2.14-.32h.02ZM79.72,69.35v5.08h-.47v-5.08h.47ZM81.68,69.35v.22h-1.98v-.22h1.98ZM81.37,71.81v.22h-1.67v-.22h1.67ZM81.68,74.2v.22h-1.98v-.22h1.98ZM82.12,73.25l-.42,1.17h-1.2l.26-.22c.26,0,.47-.04.63-.12.16-.08.29-.19.4-.34s.19-.31.27-.49h.07ZM81.68,69.22v.21l-.88-.08c.11,0,.22,0,.34-.02.12-.01.23-.03.33-.05.1-.02.17-.04.22-.06ZM81.37,71.35v.48h-.42c.1-.02.18-.06.25-.13.07-.07.1-.15.1-.25v-.1h.07ZM81.37,72.01v.48h-.07v-.11c0-.1-.03-.18-.1-.25-.07-.07-.15-.1-.25-.1h0s.42-.01.42-.01ZM81.68,69.55v.58h-.07v-.13c0-.12-.04-.22-.12-.3-.08-.08-.18-.13-.3-.13h0s.5-.01.5-.01Z"/>
            <path class="cls-6" d="M85.56,69.88h-.02c0-.13-.05-.23-.14-.32-.09-.09-.2-.13-.33-.13h-.09v-.07s.57,0,.57,0v.53ZM85.56,73.89v.53h-.58v-.07h.09c.13,0,.23-.04.32-.13.09-.09.14-.2.14-.32h.02ZM86.01,69.35v5.08h-.47v-5.08h.47ZM87.44,69.35c.52,0,.97.1,1.36.32s.69.51.91.89c.22.38.33.83.33,1.33s-.11.95-.33,1.33c-.22.38-.52.68-.91.89-.39.21-.84.32-1.36.32h-1.55v-.22h1.55c.42,0,.78-.1,1.08-.29.31-.19.55-.46.72-.81.17-.35.26-.75.26-1.22s-.09-.87-.26-1.22-.41-.62-.72-.81-.67-.29-1.08-.29h-1.63v-.22h1.63Z"/>
            <path class="cls-6" d="M93.44,69.88h-.02c0-.13-.05-.23-.14-.32-.09-.09-.2-.13-.32-.13h-.09v-.07h.58v.53ZM93.44,73.89v.53h-.58v-.07h.09c.13,0,.23-.04.32-.13.09-.09.14-.2.14-.32h.02ZM93.89,69.35v5.08h-.47v-5.08h.47ZM93.87,69.88v-.53h.58v.07h-.09c-.13,0-.23.04-.32.13-.09.09-.14.2-.14.32h-.02ZM93.87,73.89h.02c0,.13.05.23.14.32s.2.13.32.13h.09v.07h-.58v-.53Z"/>
            <path class="cls-6" d="M98.1,73.89c-.03.1-.04.18-.01.25.02.07.06.12.12.16s.11.05.17.05h.07v.07h-1.46v-.07h.07c.11,0,.23-.03.34-.1.12-.07.22-.19.29-.35h.41ZM99.66,69.24l.07.51-1.82,4.65h-.44l1.86-4.41c.05-.12.1-.22.13-.31.04-.09.07-.17.09-.25.03-.08.04-.14.04-.18h.06ZM100.68,72.44v.22h-2.27v-.22h2.27ZM99.66,69.24l2.15,5.14h-.62l-1.67-4.45.14-.69ZM101.01,73.89h.59c.07.16.17.28.29.35.12.07.24.1.35.1h.06v.07h-1.63v-.07h.07c.09,0,.17-.04.25-.12.07-.08.08-.19.03-.34Z"/>
            <path class="cls-6" d="M104.03,69.21s.12.04.22.06c.1.02.21.04.33.05.12.01.23.02.33.02l-.88.08v-.21ZM108.23,69.34v.22h-4.2v-.22h4.2ZM104.53,69.53v.02c-.12,0-.22.05-.3.13-.08.08-.12.18-.12.3v.12h-.07s0-.58,0-.58h.5ZM105.92,73.89v.53h-.58v-.07h.09c.13,0,.23-.04.32-.13.09-.09.14-.2.14-.32h.02ZM106.37,69.37v5.06h-.47v-5.06h.47ZM106.35,73.89h.02c0,.13.05.23.14.32.09.09.2.13.32.13h.09v.07h-.58v-.53ZM108.23,69.21v.21l-.88-.08c.11,0,.22,0,.34-.02.12-.01.23-.03.33-.05.1-.02.17-.04.22-.06ZM108.23,69.53v.59h-.07v-.13c0-.12-.04-.22-.13-.3-.08-.08-.19-.13-.3-.13v-.02h.5Z"/>
            <path class="cls-6" d="M111.56,69.88h-.02c0-.13-.05-.23-.14-.32-.09-.09-.2-.13-.32-.13h-.09v-.07h.58v.53ZM111.56,73.89v.53h-.58v-.07h.09c.13,0,.23-.04.32-.13.09-.09.14-.2.14-.32h.02ZM112.01,69.35v5.08h-.47v-5.08h.47ZM112.94,69.35c.22,0,.41.03.59.09s.33.15.45.27c.12.12.21.26.28.43.07.17.1.36.1.57,0,.23-.05.45-.16.67-.11.21-.26.39-.44.52-.19.13-.4.2-.63.2.08.03.17.1.27.21s.18.2.25.3c.13.19.25.35.34.49.1.14.2.27.3.4.1.13.19.23.26.31.1.11.19.2.29.28s.2.15.32.2.24.07.38.07v.07h-.4c-.22,0-.41-.03-.58-.1s-.3-.15-.41-.25-.21-.19-.28-.29c-.01-.02-.05-.08-.12-.17s-.14-.2-.23-.33c-.09-.13-.18-.25-.26-.38-.09-.13-.16-.23-.22-.32-.06-.09-.1-.14-.11-.16-.09-.12-.19-.23-.3-.33s-.23-.15-.36-.15v-.07c.15,0,.28,0,.38,0,.13,0,.26-.02.41-.06.15-.03.29-.1.42-.21s.23-.27.3-.49c.01-.05.03-.12.04-.2s.01-.16,0-.24c0-.33-.09-.59-.25-.79-.16-.2-.38-.3-.65-.32-.13,0-.27-.01-.42-.01s-.31,0-.5,0c0,0,0-.03-.02-.06-.01-.04-.03-.09-.05-.16h1.02ZM111.99,73.89h.02c0,.13.05.23.14.32s.2.13.33.13h.09v.07h-.57v-.53Z"/>
            <path class="cls-6" d="M118.46,73.89c-.03.1-.04.18-.01.25.02.07.06.12.12.16s.11.05.17.05h.07v.07h-1.46v-.07h.07c.11,0,.23-.03.34-.1.12-.07.22-.19.29-.35h.41ZM120.02,69.24l.07.51-1.82,4.65h-.44l1.86-4.41c.05-.12.1-.22.13-.31.04-.09.07-.17.09-.25.03-.08.04-.14.04-.18h.06ZM121.04,72.44v.22h-2.27v-.22h2.27ZM120.02,69.24l2.15,5.14h-.62l-1.67-4.45.14-.69ZM121.37,73.89h.59c.07.16.17.28.29.35.12.07.24.1.35.1h.06v.07h-1.63v-.07h.07c.09,0,.17-.04.25-.12.07-.08.08-.19.03-.34Z"/>
            <path class="cls-6" d="M129.67,73.91v.52h-.6v-.07h.14c.12,0,.23-.04.31-.13s.13-.19.13-.31h.02ZM129.66,69.24l.32.41v4.78s-.33,0-.33,0v-4.28c0-.25-.02-.55-.06-.91h.07ZM129.66,69.24l4.21,4.5.07.79-4.21-4.49-.07-.8ZM129.99,73.91c0,.12.04.23.13.31s.19.13.31.13h.14v.07h-.6v-.52h.02ZM133.02,69.35h.6v.52h-.01c0-.13-.05-.23-.13-.32-.08-.08-.19-.13-.32-.13h-.14v-.07ZM133.94,69.35v4.25c0,.15,0,.3.01.45s.03.3.05.48h-.07l-.33-.38v-4.79h.33ZM134.52,69.35v.07h-.13c-.12,0-.22.04-.31.13-.09.08-.13.19-.14.32h-.02v-.52h.6Z"/>
            <path class="cls-6" d="M137.96,69.88h-.02c0-.13-.05-.23-.14-.32-.09-.09-.2-.13-.33-.13h-.09v-.07s.57,0,.57,0v.53ZM137.96,73.89v.53h-.58v-.07h.09c.13,0,.23-.04.32-.13.09-.09.14-.2.14-.32h.02ZM138.41,69.35v5.08h-.47v-5.08h.47ZM140.37,69.35v.22h-1.98v-.22h1.98ZM140.06,71.81v.22h-1.67v-.22h1.67ZM140.37,74.2v.22h-1.98v-.22h1.98ZM140.81,73.25l-.42,1.17h-1.2l.26-.22c.26,0,.47-.04.63-.12.16-.08.29-.19.4-.34s.19-.31.27-.49h.07ZM140.37,69.22v.21l-.88-.08c.11,0,.22,0,.34-.02.12-.01.23-.03.33-.05.1-.02.17-.04.22-.06ZM140.06,71.35v.48h-.42c.1-.02.18-.06.25-.13.07-.07.1-.15.1-.25v-.1h.07ZM140.06,72.01v.48h-.07v-.11c0-.1-.03-.18-.1-.25-.07-.07-.15-.1-.25-.1h0s.42-.01.42-.01ZM140.37,69.55v.58h-.07v-.13c0-.12-.04-.22-.12-.3-.08-.08-.18-.13-.3-.13h0s.5-.01.5-.01Z"/>
            <path class="cls-6" d="M146.28,69.24c.52,0,.97.11,1.36.33.39.22.7.53.92.92s.33.86.33,1.39-.11.99-.33,1.39-.53.71-.92.92c-.39.22-.85.33-1.36.33s-.96-.11-1.36-.33c-.39-.22-.7-.53-.92-.92-.22-.4-.33-.86-.33-1.39s.11-.99.33-1.39c.22-.4.53-.7.92-.92s.84-.33,1.36-.33ZM146.28,74.31c.41,0,.77-.1,1.08-.3.31-.2.55-.49.72-.85.17-.36.26-.79.26-1.27s-.09-.91-.26-1.27c-.17-.36-.41-.65-.72-.85-.31-.2-.67-.3-1.08-.3s-.76.1-1.07.3c-.31.2-.55.49-.72.85-.17.36-.26.79-.26,1.27s.09.91.26,1.27c.17.36.41.65.72.85.31.2.66.3,1.07.3Z"/>
            <path class="cls-6" d="M152.2,73.91v.52h-.6v-.07h.14c.12,0,.23-.04.31-.13s.13-.19.13-.31h.02ZM152.19,69.24l.32.41v4.78s-.33,0-.33,0v-4.28c0-.25-.02-.55-.06-.91h.07ZM152.19,69.24l4.21,4.5.07.79-4.21-4.49-.07-.8ZM152.51,73.91c0,.12.04.23.13.31s.19.13.31.13h.14v.07h-.6v-.52h.02ZM155.55,69.35h.6v.52h-.01c0-.13-.05-.23-.13-.32-.08-.08-.19-.13-.32-.13h-.14v-.07ZM156.47,69.35v4.25c0,.15,0,.3.01.45s.03.3.05.48h-.07l-.33-.38v-4.79h.33ZM157.05,69.35v.07h-.13c-.12,0-.22.04-.31.13-.09.08-.13.19-.14.32h-.02v-.52h.6Z"/>
            <path class="cls-6" d="M160.49,73.89c-.03.1-.04.18-.01.25.02.07.06.12.12.16s.11.05.17.05h.07v.07h-1.46v-.07h.07c.11,0,.23-.03.34-.1.12-.07.22-.19.29-.35h.41ZM162.04,69.24l.07.51-1.82,4.65h-.44l1.86-4.41c.05-.12.1-.22.13-.31.04-.09.07-.17.09-.25.03-.08.04-.14.04-.18h.06ZM163.07,72.44v.22h-2.27v-.22h2.27ZM162.04,69.24l2.15,5.14h-.62l-1.67-4.45.14-.69ZM163.39,73.89h.59c.07.16.17.28.29.35.12.07.24.1.35.1h.06v.07h-1.63v-.07h.07c.09,0,.17-.04.25-.12.07-.08.08-.19.03-.34Z"/>
            <path class="cls-6" d="M166.42,69.21s.12.04.22.06c.1.02.21.04.33.05.12.01.23.02.33.02l-.88.08v-.21ZM170.62,69.34v.22h-4.2v-.22h4.2ZM166.92,69.53v.02c-.12,0-.22.05-.3.13-.08.08-.12.18-.12.3v.12h-.07s0-.58,0-.58h.5ZM168.3,73.89v.53h-.58v-.07h.09c.13,0,.23-.04.32-.13.09-.09.14-.2.14-.32h.02ZM168.75,69.37v5.06h-.47v-5.06h.47ZM168.73,73.89h.02c0,.13.05.23.14.32.09.09.2.13.32.13h.09v.07h-.58v-.53ZM170.62,69.21v.21l-.88-.08c.11,0,.22,0,.34-.02.12-.01.23-.03.33-.05.1-.02.17-.04.22-.06ZM170.62,69.53v.59h-.07v-.13c0-.12-.04-.22-.13-.3-.08-.08-.19-.13-.3-.13v-.02h.5Z"/>
            <path class="cls-6" d="M175.86,69.24c.52,0,.97.11,1.36.33.39.22.7.53.92.92s.33.86.33,1.39-.11.99-.33,1.39-.53.71-.92.92c-.39.22-.85.33-1.36.33s-.96-.11-1.36-.33c-.39-.22-.7-.53-.92-.92-.22-.4-.33-.86-.33-1.39s.11-.99.33-1.39c.22-.4.53-.7.92-.92s.84-.33,1.36-.33ZM175.86,74.31c.41,0,.77-.1,1.08-.3.31-.2.55-.49.72-.85.17-.36.26-.79.26-1.27s-.09-.91-.26-1.27c-.17-.36-.41-.65-.72-.85-.31-.2-.67-.3-1.08-.3s-.76.1-1.07.3c-.31.2-.55.49-.72.85-.17.36-.26.79-.26,1.27s.09.91.26,1.27c.17.36.41.65.72.85.31.2.66.3,1.07.3Z"/>
            <path class="cls-6" d="M181.87,69.88h-.02c0-.13-.05-.23-.14-.32-.09-.09-.2-.13-.32-.13h-.09v-.07h.58v.53ZM181.87,73.89v.53h-.58v-.07h.09c.13,0,.23-.04.32-.13.09-.09.14-.2.14-.32h.02ZM182.32,69.35v5.08h-.47v-5.08h.47ZM182.3,69.88v-.53h.58v.07h-.09c-.13,0-.23.04-.32.13-.09.09-.14.2-.14.32h-.02ZM184.28,74.2v.22h-1.98v-.22h1.98ZM184.72,73.25l-.42,1.17h-1.2l.26-.22c.26,0,.47-.04.63-.12.16-.08.29-.19.4-.34s.19-.31.27-.49h.07Z"/>
            <path class="cls-6" d="M190.08,69.24c.52,0,.97.11,1.36.33.39.22.7.53.92.92s.33.86.33,1.39-.11.99-.33,1.39-.53.71-.92.92c-.39.22-.85.33-1.36.33s-.96-.11-1.36-.33c-.39-.22-.7-.53-.92-.92-.22-.4-.33-.86-.33-1.39s.11-.99.33-1.39c.22-.4.53-.7.92-.92s.84-.33,1.36-.33ZM190.08,74.31c.41,0,.77-.1,1.08-.3.31-.2.55-.49.72-.85.17-.36.26-.79.26-1.27s-.09-.91-.26-1.27c-.17-.36-.41-.65-.72-.85-.31-.2-.67-.3-1.08-.3s-.76.1-1.07.3c-.31.2-.55.49-.72.85-.17.36-.26.79-.26,1.27s.09.91.26,1.27c.17.36.41.65.72.85.31.2.66.3,1.07.3Z"/>
            <path class="cls-6" d="M200.36,72.39v1.2c-.11.15-.26.29-.45.44s-.42.26-.69.36-.59.14-.96.14c-.51,0-.96-.12-1.36-.34-.39-.22-.7-.53-.92-.92-.22-.39-.33-.85-.33-1.38s.11-.99.33-1.39c.22-.4.53-.7.92-.92s.84-.33,1.36-.33c.27,0,.5.02.72.07s.41.1.58.18c.17.07.33.16.47.25l.14,1.02h-.07c-.07-.28-.19-.52-.36-.71-.17-.19-.38-.34-.63-.44-.25-.1-.54-.15-.86-.15-.41,0-.76.1-1.07.3-.31.2-.55.49-.73.85-.17.36-.26.79-.26,1.27s.09.91.26,1.27c.17.36.42.64.73.85s.67.3,1.07.31c.21,0,.42-.03.61-.08.2-.05.38-.12.55-.22s.33-.21.46-.34v-1.28c0-.22-.12-.33-.36-.33h-.12v-.07h1.42v.07h-.11c-.25,0-.37.11-.36.33Z"/>
            <path class="cls-6" d="M204.02,69.88h-.02c0-.13-.05-.23-.14-.32-.09-.09-.2-.13-.32-.13h-.09v-.07h.58v.53ZM204.02,73.89v.53h-.58v-.07h.09c.13,0,.23-.04.32-.13.09-.09.14-.2.14-.32h.02ZM204.47,69.35v5.08h-.47v-5.08h.47ZM204.45,69.88v-.53h.58v.07h-.09c-.13,0-.23.04-.32.13-.09.09-.14.2-.14.32h-.02ZM204.45,73.89h.02c0,.13.05.23.14.32s.2.13.32.13h.09v.07h-.58v-.53Z"/>
            <path class="cls-6" d="M209.45,69.24c.08,0,.16,0,.25.01.09,0,.18.02.26.04.08.02.16.03.23.05.07.02.12.04.16.05v.81h-.07c0-.23-.08-.41-.24-.55-.16-.13-.35-.2-.58-.2-.27,0-.48.08-.65.25-.16.17-.25.36-.25.58,0,.09.02.2.06.32.04.12.12.24.23.34l1.43,1.32c.15.14.24.28.29.44.05.15.07.3.07.45,0,.4-.12.73-.37.98s-.57.38-.99.38c-.12,0-.25-.01-.41-.04-.16-.02-.31-.07-.46-.13s-.27-.14-.37-.24c-.01-.08-.02-.17-.02-.29s0-.24.03-.37c.02-.13.05-.25.08-.35h.07c-.02.25,0,.46.09.65.09.18.21.32.38.42.17.09.36.14.57.13.27-.01.49-.11.68-.28.19-.17.29-.4.29-.69,0-.14-.02-.27-.07-.38-.05-.11-.12-.21-.21-.29l-1.39-1.29c-.14-.14-.25-.28-.3-.45-.06-.16-.09-.31-.09-.45,0-.2.05-.4.15-.59.1-.19.24-.34.43-.46.19-.12.42-.18.7-.18ZM210.36,69.32v.15h-.55v-.15h.55Z"/>
            <path class="cls-6" d="M213.4,69.21s.12.04.22.06c.1.02.21.04.33.05.12.01.23.02.33.02l-.88.08v-.21ZM217.6,69.34v.22h-4.2v-.22h4.2ZM213.9,69.53v.02c-.12,0-.22.05-.3.13-.08.08-.12.18-.12.3v.12h-.07s0-.58,0-.58h.5ZM215.28,73.89v.53h-.58v-.07h.09c.13,0,.23-.04.32-.13.09-.09.14-.2.14-.32h.02ZM215.73,69.37v5.06h-.47v-5.06h.47ZM215.71,73.89h.02c0,.13.05.23.14.32.09.09.2.13.32.13h.09v.07h-.58v-.53ZM217.6,69.21v.21l-.88-.08c.11,0,.22,0,.34-.02.12-.01.23-.03.33-.05.1-.02.17-.04.22-.06ZM217.6,69.53v.59h-.07v-.13c0-.12-.04-.22-.13-.3-.08-.08-.19-.13-.3-.13v-.02h.5Z"/>
            <path class="cls-6" d="M220.45,73.89c-.03.1-.04.18-.01.25.02.07.06.12.12.16s.11.05.17.05h.07v.07h-1.46v-.07h.07c.11,0,.23-.03.34-.1.12-.07.22-.19.29-.35h.41ZM222,69.24l.07.51-1.82,4.65h-.44l1.86-4.41c.05-.12.1-.22.13-.31.04-.09.07-.17.09-.25.03-.08.04-.14.04-.18h.06ZM223.03,72.44v.22h-2.27v-.22h2.27ZM222,69.24l2.15,5.14h-.62l-1.67-4.45.14-.69ZM223.35,73.89h.59c.07.16.17.28.29.35.12.07.24.1.35.1h.06v.07h-1.63v-.07h.07c.09,0,.17-.04.25-.12.07-.08.08-.19.03-.34Z"/>
          </g>
        </g>
      </g>
    </symbol>
    <filter id="drop-shadow-1" x="1.38" y="-1.6" width="431.24" height="615.93" filterUnits="userSpaceOnUse">
      <feOffset dx="3.97" dy="4.96"/>
      <feGaussianBlur result="blur" stdDeviation="3.97"/>
      <feFlood flood-color="#444342" flood-opacity=".75"/>
      <feComposite in2="blur" operator="in"/>
      <feComposite in="SourceGraphic"/>
    </filter>
  </defs>
  <g>
    <g class="cls-1">
      <rect class="cls-7" x="1.38" y="-1.6" width="431.24" height="615.93"/>
    </g>
    <rect class="cls-5" x="1.61" y="-1.31" width="431" height="615.33" transform="translate(434.23 612.72) rotate(180)"/>
    <polygon class="cls-7" points="404.11 116.08 211.71 78.71 19.88 116.08 19.88 26.16 404.11 26.16 404.11 116.08"/>
    <rect class="cls-3" x="23.79" y="21.29" width="386.43" height="542.36"/>
    <polygon class="cls-5" points="411.65 122.81 218.41 69.29 23.4 122.81 23.4 20.39 411.65 20.39 411.65 122.81"/>
  </g>
  <g class="cls-4">
    <g>
      <path class="cls-2" d="M92.24,359.56v14.74h-3.59v-14.74h3.59Z"/>
      <path class="cls-2" d="M108.03,374.3h-3.59l-6-9.09v9.09h-3.59v-14.74h3.59l6,9.13v-9.13h3.59v14.74Z"/>
      <path class="cls-2" d="M121.24,359.56v2.88h-3.91v11.86h-3.59v-11.86h-3.91v-2.88h11.4Z"/>
      <path class="cls-2" d="M130.56,374.3l-3.07-5.56h-.86v5.56h-3.59v-14.74h6.03c1.16,0,2.15.2,2.97.61.82.41,1.43.96,1.84,1.67s.61,1.49.61,2.36c0,.98-.28,1.86-.83,2.62s-1.37,1.32-2.45,1.64l3.4,5.84h-4.05ZM126.63,366.19h2.23c.66,0,1.15-.16,1.48-.48.33-.32.49-.78.49-1.36s-.17-1-.49-1.32c-.33-.32-.82-.48-1.48-.48h-2.23v3.65Z"/>
      <path class="cls-2" d="M139.89,373.48c-1.16-.64-2.07-1.54-2.75-2.7-.68-1.16-1.02-2.45-1.02-3.9s.34-2.74,1.02-3.88,1.6-2.04,2.75-2.69c1.15-.64,2.42-.97,3.81-.97s2.66.32,3.81.97c1.16.64,2.06,1.54,2.73,2.69s1,2.44,1,3.88-.34,2.74-1.01,3.9c-.67,1.15-1.58,2.05-2.73,2.7-1.15.64-2.42.97-3.8.97s-2.66-.32-3.81-.97ZM146.53,369.99c.71-.78,1.06-1.82,1.06-3.11s-.35-2.34-1.06-3.12c-.71-.78-1.65-1.17-2.82-1.17s-2.14.39-2.84,1.16c-.71.77-1.06,1.81-1.06,3.13s.35,2.34,1.06,3.12c.71.78,1.66,1.17,2.84,1.17s2.12-.39,2.82-1.18Z"/>
      <path class="cls-2" d="M162.83,360.48c1.16.62,2.06,1.48,2.7,2.59.64,1.11.96,2.4.96,3.85s-.32,2.72-.96,3.84-1.54,1.99-2.71,2.6-2.52.92-4.06.92h-5.52v-14.74h5.52c1.55,0,2.91.31,4.07.92ZM161.7,370.08c.76-.74,1.13-1.79,1.13-3.15s-.38-2.41-1.13-3.17-1.81-1.13-3.17-1.13h-1.7v8.57h1.7c1.36,0,2.42-.37,3.17-1.11Z"/>
      <path class="cls-2" d="M172.03,359.56v8.82c0,.88.22,1.56.65,2.04.43.48,1.07.71,1.91.71s1.48-.24,1.93-.71c.45-.48.67-1.15.67-2.04v-8.82h3.59v8.8c0,1.32-.28,2.43-.84,3.34-.56.91-1.31,1.6-2.26,2.06-.94.46-2,.69-3.16.69s-2.2-.23-3.12-.68c-.92-.46-1.64-1.14-2.17-2.06-.53-.92-.8-2.03-.8-3.35v-8.8h3.59Z"/>
      <path class="cls-2" d="M191.9,370.67c.54-.32.96-.79,1.25-1.41h3.95c-.38,1.41-1.08,2.57-2.11,3.45-1.03.89-2.28,1.43-3.75,1.63v.82c.73,0,1.37.2,1.91.6.55.4.82,1,.82,1.8s-.29,1.4-.86,1.82c-.57.41-1.26.62-2.06.62h-3.23v-1.97h2.75c.28,0,.49-.04.63-.13s.21-.22.21-.42-.07-.33-.21-.41-.35-.12-.63-.12h-1.49v-2.6c-1.26-.14-2.37-.54-3.34-1.21s-1.71-1.54-2.25-2.61c-.53-1.08-.8-2.28-.8-3.61,0-1.46.31-2.75.94-3.89s1.51-2.03,2.63-2.67,2.4-.96,3.83-.96c1.75,0,3.25.46,4.49,1.39s2.08,2.18,2.5,3.78h-3.95c-.29-.62-.71-1.08-1.25-1.41-.54-.32-1.15-.48-1.84-.48-1.11,0-2,.38-2.69,1.15-.69.77-1.03,1.8-1.03,3.09s.34,2.32,1.03,3.09c.69.77,1.58,1.16,2.69,1.16.69,0,1.3-.16,1.84-.48Z"/>
      <path class="cls-2" d="M208.48,371.69h-5.5l-.88,2.6h-3.76l5.33-14.74h4.16l5.33,14.74h-3.8l-.88-2.6ZM204.44,355.42c.31,0,.58.05.81.14.23.09.51.23.85.41.25.14.46.24.61.3.15.06.31.09.48.09.52,0,.82-.32.9-.95h1.85c-.34,2.07-1.3,3.11-2.9,3.11-.31,0-.58-.04-.81-.14-.23-.09-.51-.23-.85-.41-.25-.14-.46-.24-.61-.3-.15-.06-.32-.09-.48-.09-.52,0-.83.31-.92.94h-1.83c.34-2.07,1.3-3.11,2.9-3.11ZM207.55,368.92l-1.83-5.4-1.81,5.4h3.63Z"/>
      <path class="cls-2" d="M217.94,373.48c-1.16-.64-2.07-1.54-2.75-2.7-.68-1.16-1.02-2.45-1.02-3.9s.34-2.74,1.02-3.88,1.6-2.04,2.75-2.69c1.15-.64,2.42-.97,3.81-.97s2.66.32,3.81.97c1.16.64,2.06,1.54,2.73,2.69s1,2.44,1,3.88-.34,2.74-1.01,3.9c-.67,1.15-1.58,2.05-2.73,2.7-1.15.64-2.42.97-3.8.97s-2.66-.32-3.81-.97ZM224.57,369.99c.71-.78,1.06-1.82,1.06-3.11s-.35-2.34-1.06-3.12c-.71-.78-1.65-1.17-2.82-1.17s-2.14.39-2.84,1.16c-.71.77-1.06,1.81-1.06,3.13s.35,2.34,1.06,3.12c.71.78,1.66,1.17,2.84,1.17s2.12-.39,2.82-1.18Z"/>
      <path class="cls-2" d="M244.9,371.69h-5.5l-.88,2.6h-3.76l5.33-14.74h4.16l5.33,14.74h-3.8l-.88-2.6ZM243.98,368.92l-1.83-5.4-1.81,5.4h3.63Z"/>
      <path class="cls-2" d="M254.79,371.53h4.7v2.77h-8.29v-14.74h3.59v11.97Z"/>
      <path class="cls-2" d="M264.81,359.56v14.74h-3.59v-14.74h3.59Z"/>
      <path class="cls-2" d="M284.11,359.56v14.74h-3.59v-8.84l-3.3,8.84h-2.9l-3.32-8.86v8.86h-3.59v-14.74h4.24l4.14,10.2,4.09-10.2h4.22Z"/>
      <path class="cls-2" d="M290.28,362.43v2.98h4.81v2.77h-4.81v3.23h5.44v2.88h-9.03v-14.74h9.03v2.88h-5.44Z"/>
      <path class="cls-2" d="M311.23,374.3h-3.59l-6-9.09v9.09h-3.59v-14.74h3.59l6,9.13v-9.13h3.59v14.74Z"/>
      <path class="cls-2" d="M324.44,359.56v2.88h-3.91v11.86h-3.59v-11.86h-3.91v-2.88h11.4Z"/>
      <path class="cls-2" d="M335.42,371.69h-5.5l-.88,2.6h-3.76l5.33-14.74h4.16l5.33,14.74h-3.8l-.88-2.6ZM334.49,368.92l-1.83-5.4-1.81,5.4h3.63Z"/>
      <path class="cls-2" d="M349.23,374.3l-3.07-5.56h-.86v5.56h-3.59v-14.74h6.03c1.16,0,2.15.2,2.97.61.82.41,1.43.96,1.84,1.67s.61,1.49.61,2.36c0,.98-.28,1.86-.83,2.62s-1.37,1.32-2.45,1.64l3.4,5.84h-4.05ZM345.31,366.19h2.23c.66,0,1.15-.16,1.48-.48.33-.32.49-.78.49-1.36s-.17-1-.49-1.32c-.33-.32-.82-.48-1.48-.48h-2.23v3.65Z"/>
    </g>
    <g>
      <path class="cls-2" d="M198.67,340.1c-.19-.35-.46-.62-.82-.81s-.78-.28-1.26-.28c-.84,0-1.5.27-2.01.82-.5.55-.75,1.28-.75,2.2,0,.98.26,1.74.79,2.29.53.55,1.25.82,2.18.82.63,0,1.17-.16,1.61-.48.44-.32.76-.78.96-1.39h-3.27v-1.9h5.61v2.4c-.19.64-.52,1.24-.97,1.8-.46.55-1.04,1-1.74,1.34s-1.5.51-2.38.51c-1.05,0-1.98-.23-2.8-.69-.82-.46-1.46-1.09-1.92-1.91-.46-.81-.69-1.75-.69-2.79s.23-1.98.69-2.8,1.09-1.46,1.91-1.92c.81-.46,1.75-.69,2.79-.69,1.27,0,2.34.31,3.21.92s1.45,1.46,1.73,2.55h-2.85Z"/>
      <path class="cls-2" d="M205.67,336.75v6.34c0,.63.16,1.12.47,1.46.31.34.77.51,1.37.51s1.07-.17,1.39-.51c.32-.34.48-.83.48-1.46v-6.34h2.58v6.32c0,.95-.2,1.75-.6,2.4s-.94,1.15-1.62,1.48c-.68.33-1.44.5-2.27.5s-1.58-.16-2.24-.49-1.18-.82-1.56-1.48c-.38-.66-.57-1.46-.57-2.41v-6.32h2.58Z"/>
      <path class="cls-2" d="M216.36,336.75v10.59h-2.58v-10.59h2.58Z"/>
      <path class="cls-2" d="M224.82,345.47h-3.95l-.63,1.87h-2.7l3.83-10.59h2.99l3.83,10.59h-2.73l-.63-1.87ZM224.16,343.48l-1.31-3.88-1.3,3.88h2.61Z"/>
      <path class="cls-2" d="M239.45,337.42c.83.44,1.48,1.06,1.94,1.86s.69,1.72.69,2.77-.23,1.96-.69,2.76-1.11,1.43-1.95,1.87c-.84.44-1.81.66-2.92.66h-3.97v-10.59h3.97c1.12,0,2.09.22,2.93.66ZM238.63,344.31c.54-.53.81-1.29.81-2.26s-.27-1.74-.81-2.28-1.3-.82-2.28-.82h-1.22v6.16h1.22c.98,0,1.74-.27,2.28-.8Z"/>
      <path class="cls-2" d="M246.1,338.82v2.14h3.46v1.99h-3.46v2.32h3.91v2.07h-6.49v-10.59h6.49v2.07h-3.91Z"/>
    </g>
  </g>
  <use width="224.65" height="90.44" transform="translate(117.42 141.45)" xlink:href="#Logo_2"/>
</svg>