<svg xmlns="http://www.w3.org/2000/svg" viewBox="0 0 1000 1000">
  <path fill="white" d="M521.384,561.39l0.522-105.367c0,0-30.775-5.738-30.775-5.738c-7.667,0-23.941-2.609-31.608-2.609
    c-11.992,0-25.939,2.027-37.613-0.742c-3.906-0.927-7.966-1.922-11.261-4.214c-12.366-8.604-30.243-14.363-44.185-20.602
    l-168.979-29.087L119.21,379.74l-129.966-160.98v505.094h19.2c0,0,11.991-130.809,65.005-198.57c0.109-1.75,0.875,5.101,1.454,3.622
    c5.794-14.775,17.531-22.89,29.218-32.631c14.052-11.712,28.845-21.413,46.187-27.608c29.974-10.707,62.099-12.886,93.59-9.635
    c45.756,4.725,93.359,31.289,123.626,65.546c5.128,5.803,9.884,11.932,14.265,18.317c2.051,2.989,5.936,12.026,8.799,12.852
    c6.441,1.859,9.23-6.166,9.23-6.166h11.815c0,0,13.426,17.691,14.903,33.937s-7.881,38.775-7.881,38.775
    s11.056,34.391,9.59,61.399c2.223,18.907,3.394,37.96,3.804,56.944c0.162,0.606,0.26,0.941,0.26,0.941l57.598-5.908
    l7.384-33.968h20.676l-1.477-66.46c0,0-26.584-8.861-19.2-39.876C504.676,564.35,521.384,561.39,521.384,561.39z"/>
  <path fill="white" d="M986.141,465.399l-94.521,5.908l-242.209,2.954l-69.413-7.384h-56.122l-4.431,94.521
    c0,0,20.31,7.385,20.31,43.106c0,36.552-23.263,30.738-23.263,30.738l2.541,65.389l21.298-0.288l-3.741,35.112
    l122.503-4.431l-2.297,136.087l29.538,5.908l-1.039-182.399c0,0-6.957-108.154,64.249-136.077
    c18.408-7.219,46.656-11.015,65.332-6.858c10.209,2.273,20.751,4.412,29.598,9.746c2.986,1.8,5.027,3.933,8.434,4.816
    c7.183,1.863,28.248,24.771,33.075,33.083c4.165,7.171,10.426,21.672,12.994,29.598c2.505,7.729,1.506,6.313,1.506,14.336
    V791.79c0,0,7.384,33.968,7.384,33.968l20.677-33.968c0,0,7.384,8.861,16.246,8.861s42.83,33.968,42.83,33.968
    L986.141,465.399z
    M616.553,620.829c-0.242,7.45-2.941,18.458-11.221,20.691c-7.018,1.893-13.866-4.144-16.303-10.341
    c-2.421-6.156-2.686-13.211-2.623-19.741c0.089-9.257,1.248-31.922,14.923-31.577c3.123,0.079,4.805,3.112,6.853,5.455
    c3.318,3.797,4.453,7.037,4.649,11.704c0.091,2.166,0.301,4.37,0.533,6.592C615.373,609.211,616.744,614.958,616.553,620.829z"/>
</svg>
